<svg width="170" height="170" viewBox="0 0 170 170" fill="none" xmlns="http://www.w3.org/2000/svg">
<path d="M85 58.4375H53.125V63.75H85V58.4375Z" fill="#EC5B43"/>
<path d="M122.188 58.4375H90.3125V63.75H122.188V58.4375Z" fill="#EC5B43"/>
<path d="M58.4375 63.75H53.125V69.0625H58.4375V63.75Z" fill="#EC5B43"/>
<path d="M69.0625 63.75H58.4375V69.0625H69.0625V63.75Z" fill="white"/>
<path d="M79.6875 63.75H69.0625V69.0625H79.6875V63.75Z" fill="black"/>
<path d="M85 63.75H79.6875V69.0625H85V63.75Z" fill="#EC5B43"/>
<path d="M95.625 63.75H90.3125V69.0625H95.625V63.75Z" fill="#EC5B43"/>
<path d="M106.25 63.75H95.625V69.0625H106.25V63.75Z" fill="white"/>
<path d="M116.875 63.75H106.25V69.0625H116.875V63.75Z" fill="black"/>
<path d="M122.188 63.75H116.875V69.0625H122.188V63.75Z" fill="#EC5B43"/>
<path d="M58.4375 69.0625H37.1875V74.375H58.4375V69.0625Z" fill="#EC5B43"/>
<path d="M69.0625 69.0625H58.4375V74.375H69.0625V69.0625Z" fill="white"/>
<path d="M79.6875 69.0625H69.0625V74.375H79.6875V69.0625Z" fill="black"/>
<path d="M95.625 69.0625H79.6875V74.375H95.625V69.0625Z" fill="#EC5B43"/>
<path d="M106.25 69.0625H95.625V74.375H106.25V69.0625Z" fill="white"/>
<path d="M116.875 69.0625H106.25V74.375H116.875V69.0625Z" fill="black"/>
<path d="M122.188 69.0625H116.875V74.375H122.188V69.0625Z" fill="#EC5B43"/>
<path d="M42.5 74.375H37.1875V79.6875H42.5V74.375Z" fill="#EC5B43"/>
<path d="M58.4375 74.375H53.125V79.6875H58.4375V74.375Z" fill="#EC5B43"/>
<path d="M69.0625 74.375H58.4375V79.6875H69.0625V74.375Z" fill="white"/>
<path d="M79.6875 74.375H69.0625V79.6875H79.6875V74.375Z" fill="black"/>
<path d="M85 74.375H79.6875V79.6875H85V74.375Z" fill="#EC5B43"/>
<path d="M95.625 74.375H90.3125V79.6875H95.625V74.375Z" fill="#EC5B43"/>
<path d="M106.25 74.375H95.625V79.6875H106.25V74.375Z" fill="white"/>
<path d="M116.875 74.375H106.25V79.6875H116.875V74.375Z" fill="black"/>
<path d="M122.188 74.375H116.875V79.6875H122.188V74.375Z" fill="#EC5B43"/>
<path d="M42.5 79.6875H37.1875V85H42.5V79.6875Z" fill="#EC5B43"/>
<path d="M58.4375 79.6875H53.125V85H58.4375V79.6875Z" fill="#EC5B43"/>
<path d="M69.0625 79.6875H58.4375V85H69.0625V79.6875Z" fill="white"/>
<path d="M79.6875 79.6875H69.0625V85H79.6875V79.6875Z" fill="black"/>
<path d="M85 79.6875H79.6875V85H85V79.6875Z" fill="#EC5B43"/>
<path d="M95.625 79.6875H90.3125V85H95.625V79.6875Z" fill="#EC5B43"/>
<path d="M106.25 79.6875H95.625V85H106.25V79.6875Z" fill="white"/>
<path d="M116.875 79.6875H106.25V85H116.875V79.6875Z" fill="black"/>
<path d="M122.188 79.6875H116.875V85H122.188V79.6875Z" fill="#EC5B43"/>
<path d="M85 85H53.125V90.3125H85V85Z" fill="#EC5B43"/>
<path d="M122.188 85H90.3125V90.3125H122.188V85Z" fill="#EC5B43"/>
</svg>
