<svg width="30" height="12" viewBox="0 0 30 12" fill="none" xmlns="http://www.w3.org/2000/svg">
<path d="M16.875 0.625H5.625V2.5H16.875V0.625Z" fill="black"/>
<path d="M30 0.625H18.75V2.5H30V0.625Z" fill="black"/>
<path d="M11.25 2.5H5.625V4.375H11.25V2.5Z" fill="black"/>
<path d="M13.125 2.5H11.25V4.375H13.125V2.5Z" fill="#FF0E0E"/>
<path d="M16.875 2.5H13.125V4.375H16.875V2.5Z" fill="black"/>
<path d="M24.375 2.5H18.75V4.375H24.375V2.5Z" fill="black"/>
<path d="M26.25 2.5H24.375V4.375H26.25V2.5Z" fill="#FF0E0E"/>
<path d="M30 2.5H26.25V4.375H30V2.5Z" fill="black"/>
<path d="M30 4.375H0V6.25H30V4.375Z" fill="black"/>
<path d="M1.875 6.25H0V8.125H1.875V6.25Z" fill="black"/>
<path d="M7.5 6.25H5.625V8.125H7.5V6.25Z" fill="black"/>
<path d="M9.375 6.25H7.5V8.125H9.375V6.25Z" fill="#0ADC4D"/>
<path d="M13.125 6.25H9.375V8.125H13.125V6.25Z" fill="black"/>
<path d="M15 6.25H13.125V8.125H15V6.25Z" fill="#1929F4"/>
<path d="M16.875 6.25H15V8.125H16.875V6.25Z" fill="black"/>
<path d="M20.625 6.25H18.75V8.125H20.625V6.25Z" fill="black"/>
<path d="M22.5 6.25H20.625V8.125H22.5V6.25Z" fill="#0ADC4D"/>
<path d="M26.25 6.25H22.5V8.125H26.25V6.25Z" fill="black"/>
<path d="M28.125 6.25H26.25V8.125H28.125V6.25Z" fill="#1929F4"/>
<path d="M30 6.25H28.125V8.125H30V6.25Z" fill="black"/>
<path d="M1.875 8.125H0V10H1.875V8.125Z" fill="black"/>
<path d="M16.875 8.125H5.625V10H16.875V8.125Z" fill="black"/>
<path d="M30 8.125H18.75V10H30V8.125Z" fill="black"/>
<path d="M16.875 10H5.625V11.875H16.875V10Z" fill="black"/>
<path d="M30 10H18.75V11.875H30V10Z" fill="black"/>
</svg>
