<svg width="30" height="12" viewBox="0 0 30 12" fill="none" xmlns="http://www.w3.org/2000/svg">
<path d="M16.875 0.625H5.625V2.5H16.875V0.625Z" fill="#068940"/>
<path d="M30 0.625H18.75V2.5H30V0.625Z" fill="#257CED"/>
<path d="M7.5 2.5H5.625V4.375H7.5V2.5Z" fill="#068940"/>
<path d="M11.25 2.5H7.5V4.375H11.25V2.5Z" fill="white"/>
<path d="M15 2.5H11.25V4.375H15V2.5Z" fill="black"/>
<path d="M16.875 2.5H15V4.375H16.875V2.5Z" fill="#068940"/>
<path d="M20.625 2.5H18.75V4.375H20.625V2.5Z" fill="#257CED"/>
<path d="M24.375 2.5H20.625V4.375H24.375V2.5Z" fill="white"/>
<path d="M28.125 2.5H24.375V4.375H28.125V2.5Z" fill="black"/>
<path d="M30 2.5H28.125V4.375H30V2.5Z" fill="#257CED"/>
<path d="M5.625 4.375H0V6.25H5.625V4.375Z" fill="#254EFB"/>
<path d="M7.5 4.375H5.625V6.25H7.5V4.375Z" fill="#068940"/>
<path d="M11.25 4.375H7.5V6.25H11.25V4.375Z" fill="white"/>
<path d="M15 4.375H11.25V6.25H15V4.375Z" fill="black"/>
<path d="M16.875 4.375H15V6.25H16.875V4.375Z" fill="#068940"/>
<path d="M18.75 4.375H16.875V6.25H18.75V4.375Z" fill="#254EFB"/>
<path d="M20.625 4.375H18.75V6.25H20.625V4.375Z" fill="#257CED"/>
<path d="M24.375 4.375H20.625V6.25H24.375V4.375Z" fill="white"/>
<path d="M28.125 4.375H24.375V6.25H28.125V4.375Z" fill="black"/>
<path d="M30 4.375H28.125V6.25H30V4.375Z" fill="#257CED"/>
<path d="M1.875 6.25H0V8.125H1.875V6.25Z" fill="#257CED"/>
<path d="M7.5 6.25H5.625V8.125H7.5V6.25Z" fill="#068940"/>
<path d="M11.25 6.25H7.5V8.125H11.25V6.25Z" fill="white"/>
<path d="M15 6.25H11.25V8.125H15V6.25Z" fill="black"/>
<path d="M16.875 6.25H15V8.125H16.875V6.25Z" fill="#068940"/>
<path d="M20.625 6.25H18.75V8.125H20.625V6.25Z" fill="#257CED"/>
<path d="M24.375 6.25H20.625V8.125H24.375V6.25Z" fill="white"/>
<path d="M28.125 6.25H24.375V8.125H28.125V6.25Z" fill="black"/>
<path d="M30 6.25H28.125V8.125H30V6.25Z" fill="#257CED"/>
<path d="M1.875 8.125H0V10H1.875V8.125Z" fill="#257CED"/>
<path d="M7.5 8.125H5.625V10H7.5V8.125Z" fill="#068940"/>
<path d="M11.25 8.125H7.5V10H11.25V8.125Z" fill="white"/>
<path d="M15 8.125H11.25V10H15V8.125Z" fill="black"/>
<path d="M16.875 8.125H15V10H16.875V8.125Z" fill="#068940"/>
<path d="M20.625 8.125H18.75V10H20.625V8.125Z" fill="#257CED"/>
<path d="M24.375 8.125H20.625V10H24.375V8.125Z" fill="white"/>
<path d="M28.125 8.125H24.375V10H28.125V8.125Z" fill="black"/>
<path d="M30 8.125H28.125V10H30V8.125Z" fill="#257CED"/>
<path d="M16.875 10H5.625V11.875H16.875V10Z" fill="#068940"/>
<path d="M30 10H18.75V11.875H30V10Z" fill="#257CED"/>
</svg>
