<svg width="320" height="320" viewBox="0 0 320 320" fill="none" xmlns="http://www.w3.org/2000/svg">
<path d="M230 210H90V220H230V210Z" fill="#63A0F9"/>
<path d="M230 220H90V230H230V220Z" fill="#63A0F9"/>
<path d="M230 230H90V240H230V230Z" fill="#63A0F9"/>
<path d="M230 240H90V250H230V240Z" fill="#63A0F9"/>
<path d="M110 250H90V260H110V250Z" fill="#63A0F9"/>
<path d="M230 250H120V260H230V250Z" fill="#63A0F9"/>
<path d="M110 260H90V270H110V260Z" fill="#63A0F9"/>
<path d="M230 260H120V270H230V260Z" fill="#63A0F9"/>
<path d="M110 270H90V280H110V270Z" fill="#63A0F9"/>
<path d="M230 270H120V280H230V270Z" fill="#63A0F9"/>
<path d="M110 280H90V290H110V280Z" fill="#63A0F9"/>
<path d="M230 280H120V290H230V280Z" fill="#63A0F9"/>
<path d="M110 290H90V300H110V290Z" fill="#63A0F9"/>
<path d="M230 290H120V300H230V290Z" fill="#63A0F9"/>
<path d="M110 300H90V310H110V300Z" fill="#63A0F9"/>
<path d="M230 300H120V310H230V300Z" fill="#63A0F9"/>
<path d="M110 310H90V320H110V310Z" fill="#63A0F9"/>
<path d="M230 310H120V320H230V310Z" fill="#63A0F9"/>
<path d="M190 230H140V240H190V230Z" fill="#F8D689"/>
<path d="M150 240H140V250H150V240Z" fill="#F8D689"/>
<path d="M170 240H160V250H170V240Z" fill="#F8D689"/>
<path d="M190 240H180V250H190V240Z" fill="#F8D689"/>
<path d="M160 250H150V260H160V250Z" fill="#F8D689"/>
<path d="M180 250H170V260H180V250Z" fill="#F8D689"/>
<path d="M150 260H140V270H150V260Z" fill="#F8D689"/>
<path d="M170 260H160V270H170V260Z" fill="#F8D689"/>
<path d="M190 260H180V270H190V260Z" fill="#F8D689"/>
<path d="M160 270H150V280H160V270Z" fill="#F8D689"/>
<path d="M180 270H170V280H180V270Z" fill="#F8D689"/>
<path d="M170 280H140V290H170V280Z" fill="#F8D689"/>
<path d="M190 280H180V290H190V280Z" fill="#F8D689"/>
<path d="M150 290H140V300H150V290Z" fill="#F8D689"/>
<path d="M190 290H160V300H190V290Z" fill="#F8D689"/>
<path d="M260 50H80V60H260V50Z" fill="#C5B9A1"/>
<path d="M260 60H80V70H260V60Z" fill="#C5B9A1"/>
<path d="M100 70H60V80H100V70Z" fill="#C5B9A1"/>
<path d="M110 70H100V80H110V70Z" fill="#FDF8FF"/>
<path d="M130 70H110V80H130V70Z" fill="#1929F4"/>
<path d="M140 70H130V80H140V70Z" fill="#FDF8FF"/>
<path d="M240 70H140V80H240V70Z" fill="#1929F4"/>
<path d="M260 70H240V80H260V70Z" fill="#C5B9A1"/>
<path d="M100 80H40V90H100V80Z" fill="#C5B9A1"/>
<path d="M120 80H100V90H120V80Z" fill="#1929F4"/>
<path d="M130 80H120V90H130V80Z" fill="#FDF8FF"/>
<path d="M240 80H130V90H240V80Z" fill="#1929F4"/>
<path d="M260 80H240V90H260V80Z" fill="#C5B9A1"/>
<path d="M100 90H40V100H100V90Z" fill="#C5B9A1"/>
<path d="M110 90H100V100H110V90Z" fill="#FDF8FF"/>
<path d="M130 90H110V100H130V90Z" fill="#1929F4"/>
<path d="M140 90H130V100H140V90Z" fill="#FDF8FF"/>
<path d="M240 90H140V100H240V90Z" fill="#1929F4"/>
<path d="M260 90H240V100H260V90Z" fill="#C5B9A1"/>
<path d="M100 100H40V110H100V100Z" fill="#C5B9A1"/>
<path d="M240 100H100V110H240V100Z" fill="#1929F4"/>
<path d="M260 100H240V110H260V100Z" fill="#C5B9A1"/>
<path d="M100 110H40V120H100V110Z" fill="#C5B9A1"/>
<path d="M240 110H100V120H240V110Z" fill="#1929F4"/>
<path d="M260 110H240V120H260V110Z" fill="#C5B9A1"/>
<path d="M100 120H40V130H100V120Z" fill="#C5B9A1"/>
<path d="M240 120H100V130H240V120Z" fill="#1929F4"/>
<path d="M260 120H240V130H260V120Z" fill="#C5B9A1"/>
<path d="M100 130H40V140H100V130Z" fill="#C5B9A1"/>
<path d="M240 130H100V140H240V130Z" fill="#1929F4"/>
<path d="M260 130H240V140H260V130Z" fill="#C5B9A1"/>
<path d="M60 140H40V150H60V140Z" fill="#9D8E6E"/>
<path d="M100 140H60V150H100V140Z" fill="#C5B9A1"/>
<path d="M240 140H100V150H240V140Z" fill="#1929F4"/>
<path d="M260 140H240V150H260V140Z" fill="#C5B9A1"/>
<path d="M100 150H40V160H100V150Z" fill="#C5B9A1"/>
<path d="M240 150H100V160H240V150Z" fill="#1929F4"/>
<path d="M260 150H240V160H260V150Z" fill="#C5B9A1"/>
<path d="M60 160H40V170H60V160Z" fill="#9D8E6E"/>
<path d="M100 160H60V170H100V160Z" fill="#C5B9A1"/>
<path d="M240 160H100V170H240V160Z" fill="#1929F4"/>
<path d="M260 160H240V170H260V160Z" fill="#C5B9A1"/>
<path d="M100 170H40V180H100V170Z" fill="#C5B9A1"/>
<path d="M240 170H100V180H240V170Z" fill="#1929F4"/>
<path d="M260 170H240V180H260V170Z" fill="#C5B9A1"/>
<path d="M60 180H40V190H60V180Z" fill="#9D8E6E"/>
<path d="M100 180H60V190H100V180Z" fill="#C5B9A1"/>
<path d="M240 180H100V190H240V180Z" fill="#1929F4"/>
<path d="M260 180H240V190H260V180Z" fill="#C5B9A1"/>
<path d="M170 190H40V200H170V190Z" fill="#C5B9A1"/>
<path d="M180 190H170V200H180V190Z" fill="black"/>
<path d="M190 190H180V200H190V190Z" fill="#C5B9A1"/>
<path d="M200 190H190V200H200V190Z" fill="black"/>
<path d="M260 190H200V200H260V190Z" fill="#C5B9A1"/>
<path d="M160 200H60V210H160V200Z" fill="#C5B9A1"/>
<path d="M170 200H160V210H170V200Z" fill="black"/>
<path d="M180 200H170V210H180V200Z" fill="#C5B9A1"/>
<path d="M190 200H180V210H190V200Z" fill="black"/>
<path d="M200 200H190V210H200V200Z" fill="#C5B9A1"/>
<path d="M210 200H200V210H210V200Z" fill="black"/>
<path d="M260 200H210V210H260V200Z" fill="#C5B9A1"/>
<path d="M260 210H80V220H260V210Z" fill="#C5B9A1"/>
<path d="M160 110H100V120H160V110Z" fill="black"/>
<path d="M230 110H170V120H230V110Z" fill="black"/>
<path d="M110 120H100V130H110V120Z" fill="black"/>
<path d="M130 120H110V130H130V120Z" fill="white"/>
<path d="M150 120H130V130H150V120Z" fill="#FF0E0E"/>
<path d="M160 120H150V130H160V120Z" fill="black"/>
<path d="M180 120H170V130H180V120Z" fill="black"/>
<path d="M200 120H180V130H200V120Z" fill="white"/>
<path d="M220 120H200V130H220V120Z" fill="#FF0E0E"/>
<path d="M230 120H220V130H230V120Z" fill="black"/>
<path d="M110 130H70V140H110V130Z" fill="black"/>
<path d="M130 130H110V140H130V130Z" fill="white"/>
<path d="M150 130H130V140H150V130Z" fill="#FF0E0E"/>
<path d="M180 130H150V140H180V130Z" fill="black"/>
<path d="M200 130H180V140H200V130Z" fill="white"/>
<path d="M220 130H200V140H220V130Z" fill="#FF0E0E"/>
<path d="M230 130H220V140H230V130Z" fill="black"/>
<path d="M80 140H70V150H80V140Z" fill="black"/>
<path d="M110 140H100V150H110V140Z" fill="black"/>
<path d="M130 140H110V150H130V140Z" fill="white"/>
<path d="M150 140H130V150H150V140Z" fill="#FF0E0E"/>
<path d="M160 140H150V150H160V140Z" fill="black"/>
<path d="M180 140H170V150H180V140Z" fill="black"/>
<path d="M200 140H180V150H200V140Z" fill="white"/>
<path d="M220 140H200V150H220V140Z" fill="#FF0E0E"/>
<path d="M230 140H220V150H230V140Z" fill="black"/>
<path d="M80 150H70V160H80V150Z" fill="black"/>
<path d="M110 150H100V160H110V150Z" fill="black"/>
<path d="M130 150H110V160H130V150Z" fill="white"/>
<path d="M150 150H130V160H150V150Z" fill="#FF0E0E"/>
<path d="M160 150H150V160H160V150Z" fill="black"/>
<path d="M180 150H170V160H180V150Z" fill="black"/>
<path d="M200 150H180V160H200V150Z" fill="white"/>
<path d="M220 150H200V160H220V150Z" fill="#FF0E0E"/>
<path d="M230 150H220V160H230V150Z" fill="black"/>
<path d="M160 160H100V170H160V160Z" fill="black"/>
<path d="M230 160H170V170H230V160Z" fill="black"/>
</svg>
